# xmcd CD database file
#
# Track frame offsets:
#	150
#	8439
#	19204
#	29400
#	36342
#	45024
#	54768
#	67517
#	75794
#	86362
#	93087
#	102537
#
# Disc length: 1547 seconds
#
# Revision: 0
# Processed by: cddbd v1.4PL0 Copyright (c) Steve Scherf et al.
# Submitted via: CDex 1.50
#
DISCID=6d06090c
DTITLE=Gabriel Bock - All Time Standards Piano
DYEAR=2002
DGENRE=Jazz
TTITLE0=Satin Doll
TTITLE1=The Days of Wine and Roses
TTITLE2=Autumn Leaves
TTITLE3=Someday My Prince Will Come
TTITLE4=Body and Soul
TTITLE5=Li'l Darlin'
TTITLE6=Yesterdays
TTITLE7=One Note Samba
TTITLE8=I Can't Give You Anything But Love
TTITLE9=Waltz for Debby
TTITLE10=Marion's Walk
TTITLE11=Feelings
EXTD=YEAR: 2002
EXTT0=
EXTT1=
EXTT2=
EXTT3=
EXTT4=
EXTT5=
EXTT6=
EXTT7=
EXTT8=
EXTT9=
EXTT10=
EXTT11=
PLAYORDER=
